<svg version="1.0" xmlns="http://www.w3.org/2000/svg" width="500.000000pt" height="500.000000pt" viewBox="0 0 500.000000 500.000000" preserveAspectRatio="xMidYMid meet">

<g transform="translate(0.000000,500.000000) scale(0.100000,-0.100000)" fill="#ffffff" stroke="none">
<path d="M1450 2550 l0 -280 225 0 225 0 0 55 0 55 55 0 55 0 0 55 0 55 -55 0 -55 0 0 60 0 60 55 0 55 0 0 55 0 55 -55 0 -55 0 0 55 0 55 -225 0 -225 0 0 -280z m450 115 l0 -55 -170 0 -170 0 0 55 0 55 170 0 170 0 0 -55z m0 -230 l0 -55 -170 0 -170 0 0 55 0 55 170 0 170 0 0 -55z" fill="#ffffff"/>
<path d="M2220 2720 l0 -110 55 0 55 0 0 -60 0 -60 55 0 55 0 0 -110 0 -110 60 0 60 0 0 109 0 110 53 3 52 3 3 58 3 57 54 0 55 0 0 110 0 110 -55 0 -55 0 0 -110 0 -110 -55 0 -55 0 0 -60 0 -60 -60 0 -60 0 0 60 0 60 -55 0 -55 0 0 110 0 110 -55 0 -55 0 0 -110z" fill="#ffffff"/>
<path d="M2990 2550 l0 -280 55 0 55 0 0 110 0 110 168 2 167 3 0 55 0 55 -167 3 -168 2 0 55 0 55 225 0 225 0 0 55 0 55 -280 0 -280 0 0 -280z" fill="#ffffff"/>
</g>
</svg>